<?xml version="1.0" standalone="no"?>
<!DOCTYPE svg PUBLIC "-//W3C//DTD SVG 20010904//EN"
 "http://www.w3.org/TR/2001/REC-SVG-20010904/DTD/svg10.dtd">
<svg version="1.0" xmlns="http://www.w3.org/2000/svg"
 width="1280.000000pt" height="807.000000pt" viewBox="0 0 1280.000000 807.000000"
 preserveAspectRatio="xMidYMid meet">
<metadata>
Created by potrace 1.15, written by Peter Selinger 2001-2017
</metadata>
<g transform="translate(0.000000,807.000000) scale(0.100000,-0.100000)"
fill="#000000" stroke="none">
<path d="M10560 8059 c-2173 -12 -5159 -28 -7290 -39 -1114 -5 -2305 -13
-2647 -16 l-623 -6 0 -4000 0 -4000 753 6 c413 4 1407 11 2207 16 2452 16
4430 30 5885 40 765 5 1858 12 2430 15 572 3 1149 8 1283 11 l242 6 0 3989 0
3989 -472 -2 c-260 -1 -1056 -5 -1768 -9z m2089 -66 c0 -5 -574 -521 -1276
-1148 -701 -627 -2086 -1866 -3076 -2752 -991 -887 -1805 -1612 -1809 -1610
-12 3 -6339 5429 -6336 5433 4 3 1615 14 8158 55 1695 10 3714 24 4143 27 108
1 197 -1 196 -5z m77 -7760 c-4 -4 -5066 3160 -5066 3167 0 6 896 814 2330
2101 1592 1429 2610 2333 2682 2380 l43 29 7 -3837 c4 -2110 6 -3838 4 -3840z
m-11077 6292 c1376 -1180 3569 -3058 3640 -3118 19 -15 32 -29 30 -31 -47 -35
-5222 -3256 -5226 -3253 -2 3 -9 23 -14 44 -10 43 -13 7481 -2 7610 l6 82 60
-47 c33 -26 710 -605 1506 -1287z m4044 -3463 c171 -148 391 -339 487 -426 96
-86 195 -167 220 -179 68 -33 136 -28 205 14 30 19 260 219 511 444 250 226
459 411 464 413 7 3 5005 -3112 5029 -3134 2 -2 1 -7 -2 -10 -19 -19 -2071
-37 -8427 -74 -971 -6 -2259 -17 -2864 -26 -604 -8 -1100 -13 -1103 -10 -3 2
15 17 39 32 307 194 5106 3188 5116 3191 7 3 11 12 8 19 -3 8 -3 14 -1 14 3 0
146 -121 318 -268z"/>
</g>
</svg>
